<svg width="78" height="126" viewBox="0 0 78 126" fill="none" xmlns="http://www.w3.org/2000/svg">
<path fill-rule="evenodd" clip-rule="evenodd" d="M67.5 2.11598e-05L10.5 1.52588e-05C4.71001 1.47526e-05 4.92103e-06 4.71001 4.41485e-06 10.5L0 61H1L1 10.5C1 5.26001 5.26001 1.00001 10.5 1.00002L67.5 1.00002C72.74 1.00002 77 5.26002 77 10.5L77 61H78L78 10.5C78 4.71002 73.29 2.11598e-05 67.5 2.11598e-05ZM10.5 126H67.5C73.29 126 78 121.29 78 115.5V65H77V115.5C77 120.74 72.74 125 67.5 125H10.5C5.26 125 1 120.74 1 115.5V65H0V115.5C0 121.29 4.71 126 10.5 126Z" fill="#8F934A"/>
</svg>
