<svg width="1873" height="827" viewBox="0 0 1873 827" fill="none" xmlns="http://www.w3.org/2000/svg">
<g opacity="0.2" filter="url(#filter0_f)">
<path d="M1475 332C1475 337.523 1470.52 342 1465 342C1459.48 342 1460.5 337.523 1460.5 332C1460.5 326.477 1459.48 322 1465 322C1470.52 322 1475 326.477 1475 332Z" fill="white"/>
</g>
<g opacity="0.2" filter="url(#filter1_f)">
<circle cx="1806" cy="277" r="10" fill="white"/>
</g>
<g opacity="0.2" filter="url(#filter2_f)">
<circle cx="1853" cy="365" r="10" fill="white"/>
</g>
<g opacity="0.2" filter="url(#filter3_f)">
<circle cx="1516" cy="569" r="10" fill="white"/>
</g>
<g opacity="0.2" filter="url(#filter4_f)">
<circle cx="1671" cy="569" r="10" fill="white"/>
</g>
<g opacity="0.2" filter="url(#filter5_f)">
<circle cx="1683.5" cy="804.5" r="12.5" fill="white"/>
</g>
<g opacity="0.2" filter="url(#filter6_f)">
<circle cx="939" cy="800" r="10" fill="white"/>
</g>
<g opacity="0.2" filter="url(#filter7_f)">
<circle cx="1269" cy="642" r="5" fill="white"/>
</g>
<g opacity="0.2" filter="url(#filter8_f)">
<circle cx="1749.5" cy="409.5" r="7.5" fill="white"/>
</g>
<g opacity="0.2" filter="url(#filter9_f)">
<circle cx="1116.5" cy="76.5" r="7.5" fill="white"/>
</g>
<g opacity="0.2" filter="url(#filter10_f)">
<circle cx="1334.5" cy="17.5" r="7.5" fill="white"/>
</g>
<g opacity="0.2" filter="url(#filter11_f)">
<circle cx="1505.5" cy="128.5" r="7.5" fill="white"/>
</g>
<g opacity="0.2" filter="url(#filter12_f)">
<circle cx="1760.5" cy="78.5" r="7.5" fill="white"/>
</g>
<g opacity="0.2" filter="url(#filter13_f)">
<circle cx="351.5" cy="285.5" r="7.5" fill="white"/>
</g>
<g opacity="0.2" filter="url(#filter14_f)">
<circle cx="30" cy="398" r="10" fill="white"/>
</g>
<g opacity="0.2" filter="url(#filter15_f)">
<circle cx="384" cy="456" r="10" fill="white"/>
</g>
<g opacity="0.2" filter="url(#filter16_f)">
<circle cx="94" cy="647" r="10" fill="white"/>
</g>
<g opacity="0.2" filter="url(#filter17_f)">
<circle cx="371" cy="692" r="10" fill="white"/>
</g>
<g opacity="0.2" filter="url(#filter18_f)">
<circle cx="631.309" cy="328.721" r="2.5" transform="rotate(165 631.309 328.721)" fill="white"/>
</g>
<g opacity="0.2" filter="url(#filter19_f)">
<circle cx="1224.12" cy="333.124" r="5" transform="rotate(165 1224.12 333.124)" fill="white"/>
</g>
<g opacity="0.2" filter="url(#filter20_f)">
<circle cx="521.186" cy="69.1856" r="7.5" transform="rotate(165 521.186 69.1856)" fill="white"/>
</g>
<g opacity="0.2" filter="url(#filter21_f)">
<circle cx="713.247" cy="22.9534" r="5" transform="rotate(165 713.247 22.9534)" fill="white"/>
</g>
<g opacity="0.2" filter="url(#filter22_f)">
<circle cx="58.2474" cy="147.953" r="5" transform="rotate(165 58.2474 147.953)" fill="white"/>
</g>
<g opacity="0.2" filter="url(#filter23_f)">
<circle cx="713.124" cy="208.124" r="5" transform="rotate(165 713.124 208.124)" fill="white"/>
</g>
<circle cx="1672.78" cy="339.778" r="7.62132" transform="rotate(135 1672.78 339.778)" fill="white"/>
<circle cx="1859.02" cy="242.778" r="2.5" transform="rotate(135 1859.02 242.778)" fill="white"/>
<circle cx="1637.54" cy="158.536" r="2.5" transform="rotate(135 1637.54 158.536)" fill="white"/>
<circle cx="1840.68" cy="569.678" r="12.5" transform="rotate(135 1840.68 569.678)" fill="white"/>
<circle cx="1776.61" cy="450.154" r="5" transform="rotate(-135 1776.61 450.154)" fill="white"/>
<circle cx="1749.54" cy="520.536" r="2.5" transform="rotate(-135 1749.54 520.536)" fill="white"/>
<path d="M1640.5 113.5C1640.5 120.404 1633.4 123 1626.5 123C1619.6 123 1613 120.404 1613 113.5C1613 106.596 1618.6 101 1625.5 101C1632.4 101 1640.5 106.596 1640.5 113.5Z" fill="white"/>
<circle cx="13.1969" cy="799.011" r="5.3639" transform="rotate(-105 13.1969 799.011)" fill="white"/>
<path d="M1574 480.5C1571.07 477.571 1570.14 475.712 1573.07 472.783C1576 469.854 1580.75 469.854 1583.68 472.783C1586.61 475.712 1586.61 480.461 1583.68 483.39C1580.75 486.318 1576.93 483.429 1574 480.5Z" fill="white"/>
<circle cx="129.587" cy="499.199" r="5.11001" transform="rotate(-60 129.587 499.199)" fill="white"/>
<circle opacity="0.2" cx="262.78" cy="689.498" r="1.68563" transform="rotate(30 262.78 689.498)" fill="white"/>
<path d="M796.475 57.1411C794.117 58.5785 791.04 57.8325 789.603 55.4747C788.165 53.1169 789.642 50.9375 792 49.5C794.358 48.0625 795.062 49.6422 796.5 52C797.937 54.3578 798.832 55.7036 796.475 57.1411Z" fill="white"/>
<circle cx="682.705" cy="19.436" r="2.5" transform="rotate(58.6309 682.705 19.436)" fill="white"/>
<circle cx="614.436" cy="62.436" r="2.5" transform="rotate(58.6309 614.436 62.436)" fill="white"/>
<circle cx="293.436" cy="28.436" r="2.5" transform="rotate(58.6309 293.436 28.436)" fill="white"/>
<circle cx="1186.44" cy="21.436" r="2.5" transform="rotate(58.6309 1186.44 21.436)" fill="white"/>
<circle cx="1501.44" cy="430.436" r="2.5" transform="rotate(58.6309 1501.44 430.436)" fill="white"/>
<path d="M544 18C540.463 20.1562 539.156 20.5367 537 17C534.844 13.4633 533.598 10.0603 537.135 7.9041C540.671 5.74791 544.344 7.46331 546.5 11C548.656 14.5367 547.537 15.8438 544 18Z" fill="white"/>
<path d="M992.5 16C988.963 18.1562 985.06 20.7487 982.904 17.212C980.748 13.6753 981.867 9.06034 985.404 6.90415C988.94 4.74797 993.344 4.46331 995.5 8C997.656 11.5367 996.037 13.8438 992.5 16Z" fill="white"/>
<circle cx="1445.5" cy="202.5" r="7.5" fill="white"/>
<circle cx="1445" cy="734" r="10" fill="white"/>
<path d="M1823 200C1823 205.523 1818.52 210 1813 210C1807.48 210 1806 205.023 1806 199.5C1806 193.977 1807.98 187 1813.5 187C1819.02 187 1823 194.477 1823 200Z" fill="white"/>
<circle cx="1823.5" cy="66.5" r="7.5" fill="white"/>
<circle cx="121.738" cy="323.917" r="5" transform="rotate(165 121.738 323.917)" fill="white"/>
<circle cx="17.0619" cy="129.062" r="2.5" transform="rotate(165 17.0619 129.062)" fill="white"/>
<circle cx="1713.5" cy="18.5" r="7.5" transform="rotate(90 1713.5 18.5)" fill="white"/>
<circle cx="1531" cy="55" r="5" transform="rotate(90 1531 55)" fill="white"/>
<path d="M277.074 518.235C283.742 516.448 290.597 520.406 292.383 527.074C294.17 533.742 290.213 540.597 283.545 542.383C276.876 544.17 266.287 537.668 264.5 531C262.713 524.332 270.406 520.022 277.074 518.235Z" fill="white"/>
<path d="M1290.5 47C1290.5 52.5228 1289.02 56 1283.5 56C1277.98 56 1272 52.0228 1272 46.5C1272 40.9772 1276.48 39 1282 39C1287.52 39 1290.5 41.4772 1290.5 47Z" fill="white"/>
<path d="M381 81.5C381 88.4036 375.404 94 368.5 94C361.596 94 355.5 83.9036 355.5 77C355.5 66.3266 379.187 69.8081 380.912 80.3412C380.97 80.6922 381 81.0767 381 81.5Z" fill="white"/>
<path d="M506 210.5C506 214.642 502.642 218 498.5 218C494.358 218 491 214.642 491 210.5C491 206.358 494.358 206 498.5 206C502.642 206 506 206.358 506 210.5Z" fill="white"/>
<path d="M801 736.5C801 740.642 797.642 744 793.5 744C789.358 744 786 740.642 786 736.5C786 732.358 789.358 732 793.5 732C797.642 732 801 732.358 801 736.5Z" fill="white"/>
<path d="M443.89 647.856C439.889 648.928 435.777 646.554 434.704 642.553C433.632 638.552 436.007 634.439 440.008 633.367C444.009 632.295 445.224 635.446 446.296 639.447C447.368 643.448 447.891 646.784 443.89 647.856Z" fill="white"/>
<circle cx="10" cy="27" r="10" fill="white"/>
<circle cx="224.5" cy="205.5" r="7.5" fill="white"/>
<circle cx="104.5" cy="81.5" r="7.5" fill="white"/>
<circle cx="164" cy="27" r="5" fill="white"/>
<circle cx="174" cy="780" r="10" transform="rotate(90 174 780)" fill="white"/>
<defs>
<filter id="filter0_f" x="1450.43" y="312" width="34.5748" height="40" filterUnits="userSpaceOnUse" color-interpolation-filters="sRGB">
<feFlood flood-opacity="0" result="BackgroundImageFix"/>
<feBlend mode="normal" in="SourceGraphic" in2="BackgroundImageFix" result="shape"/>
<feGaussianBlur stdDeviation="5" result="effect1_foregroundBlur"/>
</filter>
<filter id="filter1_f" x="1786" y="257" width="40" height="40" filterUnits="userSpaceOnUse" color-interpolation-filters="sRGB">
<feFlood flood-opacity="0" result="BackgroundImageFix"/>
<feBlend mode="normal" in="SourceGraphic" in2="BackgroundImageFix" result="shape"/>
<feGaussianBlur stdDeviation="5" result="effect1_foregroundBlur"/>
</filter>
<filter id="filter2_f" x="1833" y="345" width="40" height="40" filterUnits="userSpaceOnUse" color-interpolation-filters="sRGB">
<feFlood flood-opacity="0" result="BackgroundImageFix"/>
<feBlend mode="normal" in="SourceGraphic" in2="BackgroundImageFix" result="shape"/>
<feGaussianBlur stdDeviation="5" result="effect1_foregroundBlur"/>
</filter>
<filter id="filter3_f" x="1496" y="549" width="40" height="40" filterUnits="userSpaceOnUse" color-interpolation-filters="sRGB">
<feFlood flood-opacity="0" result="BackgroundImageFix"/>
<feBlend mode="normal" in="SourceGraphic" in2="BackgroundImageFix" result="shape"/>
<feGaussianBlur stdDeviation="5" result="effect1_foregroundBlur"/>
</filter>
<filter id="filter4_f" x="1651" y="549" width="40" height="40" filterUnits="userSpaceOnUse" color-interpolation-filters="sRGB">
<feFlood flood-opacity="0" result="BackgroundImageFix"/>
<feBlend mode="normal" in="SourceGraphic" in2="BackgroundImageFix" result="shape"/>
<feGaussianBlur stdDeviation="5" result="effect1_foregroundBlur"/>
</filter>
<filter id="filter5_f" x="1661" y="782" width="45" height="45" filterUnits="userSpaceOnUse" color-interpolation-filters="sRGB">
<feFlood flood-opacity="0" result="BackgroundImageFix"/>
<feBlend mode="normal" in="SourceGraphic" in2="BackgroundImageFix" result="shape"/>
<feGaussianBlur stdDeviation="5" result="effect1_foregroundBlur"/>
</filter>
<filter id="filter6_f" x="919" y="780" width="40" height="40" filterUnits="userSpaceOnUse" color-interpolation-filters="sRGB">
<feFlood flood-opacity="0" result="BackgroundImageFix"/>
<feBlend mode="normal" in="SourceGraphic" in2="BackgroundImageFix" result="shape"/>
<feGaussianBlur stdDeviation="5" result="effect1_foregroundBlur"/>
</filter>
<filter id="filter7_f" x="1254" y="627" width="30" height="30" filterUnits="userSpaceOnUse" color-interpolation-filters="sRGB">
<feFlood flood-opacity="0" result="BackgroundImageFix"/>
<feBlend mode="normal" in="SourceGraphic" in2="BackgroundImageFix" result="shape"/>
<feGaussianBlur stdDeviation="5" result="effect1_foregroundBlur"/>
</filter>
<filter id="filter8_f" x="1732" y="392" width="35" height="35" filterUnits="userSpaceOnUse" color-interpolation-filters="sRGB">
<feFlood flood-opacity="0" result="BackgroundImageFix"/>
<feBlend mode="normal" in="SourceGraphic" in2="BackgroundImageFix" result="shape"/>
<feGaussianBlur stdDeviation="5" result="effect1_foregroundBlur"/>
</filter>
<filter id="filter9_f" x="1099" y="59" width="35" height="35" filterUnits="userSpaceOnUse" color-interpolation-filters="sRGB">
<feFlood flood-opacity="0" result="BackgroundImageFix"/>
<feBlend mode="normal" in="SourceGraphic" in2="BackgroundImageFix" result="shape"/>
<feGaussianBlur stdDeviation="5" result="effect1_foregroundBlur"/>
</filter>
<filter id="filter10_f" x="1317" y="0" width="35" height="35" filterUnits="userSpaceOnUse" color-interpolation-filters="sRGB">
<feFlood flood-opacity="0" result="BackgroundImageFix"/>
<feBlend mode="normal" in="SourceGraphic" in2="BackgroundImageFix" result="shape"/>
<feGaussianBlur stdDeviation="5" result="effect1_foregroundBlur"/>
</filter>
<filter id="filter11_f" x="1488" y="111" width="35" height="35" filterUnits="userSpaceOnUse" color-interpolation-filters="sRGB">
<feFlood flood-opacity="0" result="BackgroundImageFix"/>
<feBlend mode="normal" in="SourceGraphic" in2="BackgroundImageFix" result="shape"/>
<feGaussianBlur stdDeviation="5" result="effect1_foregroundBlur"/>
</filter>
<filter id="filter12_f" x="1743" y="61" width="35" height="35" filterUnits="userSpaceOnUse" color-interpolation-filters="sRGB">
<feFlood flood-opacity="0" result="BackgroundImageFix"/>
<feBlend mode="normal" in="SourceGraphic" in2="BackgroundImageFix" result="shape"/>
<feGaussianBlur stdDeviation="5" result="effect1_foregroundBlur"/>
</filter>
<filter id="filter13_f" x="334" y="268" width="35" height="35" filterUnits="userSpaceOnUse" color-interpolation-filters="sRGB">
<feFlood flood-opacity="0" result="BackgroundImageFix"/>
<feBlend mode="normal" in="SourceGraphic" in2="BackgroundImageFix" result="shape"/>
<feGaussianBlur stdDeviation="5" result="effect1_foregroundBlur"/>
</filter>
<filter id="filter14_f" x="10" y="378" width="40" height="40" filterUnits="userSpaceOnUse" color-interpolation-filters="sRGB">
<feFlood flood-opacity="0" result="BackgroundImageFix"/>
<feBlend mode="normal" in="SourceGraphic" in2="BackgroundImageFix" result="shape"/>
<feGaussianBlur stdDeviation="5" result="effect1_foregroundBlur"/>
</filter>
<filter id="filter15_f" x="364" y="436" width="40" height="40" filterUnits="userSpaceOnUse" color-interpolation-filters="sRGB">
<feFlood flood-opacity="0" result="BackgroundImageFix"/>
<feBlend mode="normal" in="SourceGraphic" in2="BackgroundImageFix" result="shape"/>
<feGaussianBlur stdDeviation="5" result="effect1_foregroundBlur"/>
</filter>
<filter id="filter16_f" x="74" y="627" width="40" height="40" filterUnits="userSpaceOnUse" color-interpolation-filters="sRGB">
<feFlood flood-opacity="0" result="BackgroundImageFix"/>
<feBlend mode="normal" in="SourceGraphic" in2="BackgroundImageFix" result="shape"/>
<feGaussianBlur stdDeviation="5" result="effect1_foregroundBlur"/>
</filter>
<filter id="filter17_f" x="351" y="672" width="40" height="40" filterUnits="userSpaceOnUse" color-interpolation-filters="sRGB">
<feFlood flood-opacity="0" result="BackgroundImageFix"/>
<feBlend mode="normal" in="SourceGraphic" in2="BackgroundImageFix" result="shape"/>
<feGaussianBlur stdDeviation="5" result="effect1_foregroundBlur"/>
</filter>
<filter id="filter18_f" x="618.247" y="315.659" width="26.1237" height="26.1237" filterUnits="userSpaceOnUse" color-interpolation-filters="sRGB">
<feFlood flood-opacity="0" result="BackgroundImageFix"/>
<feBlend mode="normal" in="SourceGraphic" in2="BackgroundImageFix" result="shape"/>
<feGaussianBlur stdDeviation="5" result="effect1_foregroundBlur"/>
</filter>
<filter id="filter19_f" x="1208" y="317" width="32.2474" height="32.2474" filterUnits="userSpaceOnUse" color-interpolation-filters="sRGB">
<feFlood flood-opacity="0" result="BackgroundImageFix"/>
<feBlend mode="normal" in="SourceGraphic" in2="BackgroundImageFix" result="shape"/>
<feGaussianBlur stdDeviation="5" result="effect1_foregroundBlur"/>
</filter>
<filter id="filter20_f" x="502" y="50" width="38.3712" height="38.3712" filterUnits="userSpaceOnUse" color-interpolation-filters="sRGB">
<feFlood flood-opacity="0" result="BackgroundImageFix"/>
<feBlend mode="normal" in="SourceGraphic" in2="BackgroundImageFix" result="shape"/>
<feGaussianBlur stdDeviation="5" result="effect1_foregroundBlur"/>
</filter>
<filter id="filter21_f" x="697.124" y="6.82965" width="32.2474" height="32.2474" filterUnits="userSpaceOnUse" color-interpolation-filters="sRGB">
<feFlood flood-opacity="0" result="BackgroundImageFix"/>
<feBlend mode="normal" in="SourceGraphic" in2="BackgroundImageFix" result="shape"/>
<feGaussianBlur stdDeviation="5" result="effect1_foregroundBlur"/>
</filter>
<filter id="filter22_f" x="42.1237" y="131.83" width="32.2474" height="32.2474" filterUnits="userSpaceOnUse" color-interpolation-filters="sRGB">
<feFlood flood-opacity="0" result="BackgroundImageFix"/>
<feBlend mode="normal" in="SourceGraphic" in2="BackgroundImageFix" result="shape"/>
<feGaussianBlur stdDeviation="5" result="effect1_foregroundBlur"/>
</filter>
<filter id="filter23_f" x="697" y="192" width="32.2474" height="32.2474" filterUnits="userSpaceOnUse" color-interpolation-filters="sRGB">
<feFlood flood-opacity="0" result="BackgroundImageFix"/>
<feBlend mode="normal" in="SourceGraphic" in2="BackgroundImageFix" result="shape"/>
<feGaussianBlur stdDeviation="5" result="effect1_foregroundBlur"/>
</filter>
</defs>
</svg>
