<svg width="37" height="35" viewBox="0 0 37 35" fill="none" xmlns="http://www.w3.org/2000/svg">
<path d="M17.5489 0.927052C17.8483 0.0057416 19.1517 0.00574017 19.4511 0.927051L22.9903 11.8197C23.1242 12.2317 23.5081 12.5106 23.9413 12.5106H35.3945C36.3632 12.5106 36.766 13.7503 35.9823 14.3197L26.7165 21.0517C26.366 21.3063 26.2193 21.7577 26.3532 22.1697L29.8924 33.0623C30.1918 33.9836 29.1373 34.7497 28.3536 34.1803L19.0878 27.4483C18.7373 27.1937 18.2627 27.1937 17.9122 27.4483L8.64641 34.1803C7.86269 34.7497 6.80821 33.9836 7.10757 33.0623L10.6468 22.1697C10.7807 21.7577 10.634 21.3063 10.2835 21.0517L1.01771 14.3197C0.233999 13.7503 0.636773 12.5106 1.6055 12.5106H13.0587C13.4919 12.5106 13.8758 12.2317 14.0097 11.8197L17.5489 0.927052Z" fill="#FFD74A"/>
</svg>
